<svg width="14" height="14" viewBox="0 0 14 14" fill="none" xmlns="http://www.w3.org/2000/svg">
<path d="M6.67364 0.444923C6.28614 0.638673 6.27989 0.669923 6.27989 3.65118V6.34493H3.58614C0.592383 6.34493 0.567383 6.34493 0.379883 6.75118C0.254883 7.00743 0.254883 7.05743 0.379883 7.31368C0.567383 7.71993 0.592383 7.71993 3.58614 7.71993H6.27989V10.4137C6.27989 13.4074 6.27989 13.4324 6.68614 13.6199C6.94239 13.7449 6.99239 13.7449 7.24864 13.6199C7.65489 13.4324 7.65489 13.4074 7.65489 10.4137V7.71993H10.3486C13.3424 7.71993 13.3674 7.71993 13.5549 7.31368C13.6799 7.05743 13.6799 7.00743 13.5549 6.75118C13.3674 6.34493 13.3424 6.34493 10.3486 6.34493H7.65489V3.65118C7.65489 0.657423 7.65489 0.632423 7.24864 0.444923C6.99239 0.319922 6.92364 0.319922 6.67364 0.444923Z" fill="white"/>
</svg>
