<svg width="30" height="30" viewBox="0 0 30 30" fill="none" xmlns="http://www.w3.org/2000/svg">
<path d="M0.673665 0.44497C0.261165 0.65122 0.279915 0.31997 0.279915 7.03247C0.279915 13.77 0.261165 13.42 0.686165 13.62C0.867416 13.7075 1.56742 13.72 6.96742 13.72C12.3674 13.72 13.0674 13.7075 13.2487 13.62C13.6737 13.42 13.6549 13.77 13.6549 7.03247C13.6549 0.294971 13.6737 0.644971 13.2487 0.44497C13.0674 0.357471 12.3737 0.344971 6.95492 0.344971C1.56117 0.344971 0.848665 0.357471 0.673665 0.44497ZM12.2799 7.03247V12.345H6.96742H1.65492V7.03247V1.71997H6.96742H12.2799V7.03247Z" fill="white"/>
<path d="M16.6737 0.44497C16.2612 0.65122 16.2799 0.31997 16.2799 7.03247C16.2799 13.77 16.2612 13.42 16.6862 13.62C16.8674 13.7075 17.5674 13.72 22.9674 13.72C28.3674 13.72 29.0674 13.7075 29.2487 13.62C29.6737 13.42 29.6549 13.77 29.6549 7.03247C29.6549 0.294971 29.6737 0.644971 29.2487 0.44497C29.0674 0.357471 28.3737 0.344971 22.9549 0.344971C17.5612 0.344971 16.8487 0.357471 16.6737 0.44497ZM28.2799 7.03247V12.345H22.9674H17.6549V7.03247V1.71997H22.9674H28.2799V7.03247Z" fill="white"/>
<path d="M0.673665 16.445C0.261165 16.6512 0.279915 16.32 0.279915 23.0325C0.279915 29.77 0.261165 29.42 0.686165 29.62C0.867416 29.7075 1.56742 29.72 6.96742 29.72C12.3674 29.72 13.0674 29.7075 13.2487 29.62C13.6737 29.42 13.6549 29.77 13.6549 23.0325C13.6549 16.295 13.6737 16.645 13.2487 16.445C13.0674 16.3575 12.3737 16.345 6.95492 16.345C1.56117 16.345 0.848665 16.3575 0.673665 16.445ZM12.2799 23.0325V28.345H6.96742H1.65492V23.0325V17.72H6.96742H12.2799V23.0325Z" fill="white"/>
<path d="M22.6736 16.4449C22.2861 16.6387 22.2799 16.6699 22.2799 19.6512V22.3449H19.5861C16.5924 22.3449 16.5674 22.3449 16.3799 22.7512C16.2549 23.0074 16.2549 23.0574 16.3799 23.3137C16.5674 23.7199 16.5924 23.7199 19.5861 23.7199H22.2799V26.4137C22.2799 29.4074 22.2799 29.4324 22.6861 29.6199C22.9424 29.7449 22.9924 29.7449 23.2486 29.6199C23.6549 29.4324 23.6549 29.4074 23.6549 26.4137V23.7199H26.3486C29.3424 23.7199 29.3674 23.7199 29.5549 23.3137C29.6799 23.0574 29.6799 23.0074 29.5549 22.7512C29.3674 22.3449 29.3424 22.3449 26.3486 22.3449H23.6549V19.6512C23.6549 16.6574 23.6549 16.6324 23.2486 16.4449C22.9924 16.3199 22.9236 16.3199 22.6736 16.4449Z" fill="white"/>
</svg>
