<svg width="32" height="30" viewBox="0 0 32 30" fill="none" xmlns="http://www.w3.org/2000/svg">
<path d="M10.2861 0.762423C10.0923 0.974922 10.1548 1.25617 10.4611 1.60617C11.0798 2.31242 11.2298 3.03117 10.9111 3.71867C10.8173 3.90617 10.5173 4.31242 10.2423 4.61867C9.16731 5.80617 8.94856 6.83742 9.51731 7.99367C9.63606 8.23742 9.88606 8.59992 10.0673 8.79992C10.3423 9.10617 10.4423 9.16867 10.6048 9.16867C10.8736 9.16867 11.0548 8.99367 11.0548 8.73117C11.0548 8.56242 10.9923 8.43742 10.7736 8.19367C10.3486 7.71242 10.1673 7.29367 10.1673 6.81867C10.1673 6.28117 10.3798 5.86242 11.0048 5.16867C12.0673 3.99367 12.2861 2.95617 11.7173 1.80617C11.5986 1.56242 11.3548 1.20617 11.1798 1.00617C10.8923 0.693672 10.8298 0.649922 10.6236 0.649922C10.4736 0.649922 10.3486 0.693672 10.2861 0.762423Z" fill="white"/>
<path d="M15.9111 0.762423C15.7173 0.974922 15.7798 1.25617 16.0861 1.60617C16.7048 2.31242 16.8548 3.03117 16.5361 3.71867C16.4423 3.90617 16.1423 4.31242 15.8673 4.61867C14.7923 5.80617 14.5736 6.83742 15.1423 7.99367C15.2611 8.23742 15.5111 8.59992 15.6923 8.79992C15.9673 9.10617 16.0673 9.16867 16.2298 9.16867C16.4986 9.16867 16.6798 8.99367 16.6798 8.73117C16.6798 8.56242 16.6173 8.43742 16.3986 8.19367C15.9736 7.71242 15.7923 7.29367 15.7923 6.81867C15.7923 6.28117 16.0048 5.86242 16.6298 5.16867C17.6923 3.99367 17.9111 2.95617 17.3423 1.80617C17.2236 1.56242 16.9798 1.20617 16.8048 1.00617C16.5173 0.693672 16.4548 0.649922 16.2486 0.649922C16.0986 0.649922 15.9736 0.693672 15.9111 0.762423Z" fill="white"/>
<path d="M21.5361 0.762423C21.3423 0.974922 21.4048 1.25617 21.7111 1.60617C22.3298 2.31242 22.4798 3.03117 22.1611 3.71867C22.0673 3.90617 21.7673 4.31242 21.4923 4.61867C20.4173 5.80617 20.1986 6.83742 20.7673 7.99367C20.8861 8.23742 21.1361 8.59992 21.3173 8.79992C21.5923 9.10617 21.6923 9.16867 21.8548 9.16867C22.1236 9.16867 22.3048 8.99367 22.3048 8.73117C22.3048 8.56242 22.2423 8.43742 22.0236 8.19367C21.5986 7.71242 21.4173 7.29367 21.4173 6.81867C21.4173 6.28117 21.6298 5.86242 22.2548 5.16867C23.3173 3.99367 23.5361 2.95617 22.9673 1.80617C22.8486 1.56242 22.6048 1.20617 22.4298 1.00617C22.1423 0.693672 22.0798 0.649922 21.8736 0.649922C21.7236 0.649922 21.5986 0.693672 21.5361 0.762423Z" fill="white"/>
<path d="M13.1983 9.14995C12.9295 9.2562 12.8483 9.47495 12.8983 9.97495C12.9858 10.85 13.2295 11.4937 13.6545 11.9625C13.8108 12.1312 13.8545 12.2187 13.7983 12.2375C13.7483 12.25 13.417 12.3375 13.0545 12.4312C11.4108 12.85 9.86701 13.6875 8.42326 14.9375C7.71076 15.5562 7.14201 16.175 6.46076 17.0812C6.01701 17.6687 5.91077 17.7687 5.56077 17.9437C5.16702 18.15 5.14827 18.15 4.26701 18.15H3.36702L3.09202 17.9375C2.10452 17.1875 1.14827 17.1562 0.523265 17.85C0.192015 18.2187 0.0607654 18.5937 0.0107654 19.3187C-0.0767346 20.5625 0.373265 21.4375 1.21077 21.6875C1.76077 21.8437 2.27952 21.7062 3.00452 21.2062C3.34202 20.975 3.39202 20.9625 3.82952 20.9625H4.29202L4.08577 21.5125C3.97327 21.8125 3.79202 22.4187 3.67952 22.8687C3.56702 23.3125 3.47327 23.6875 3.46077 23.7C3.45452 23.7062 3.27952 23.7562 3.07952 23.8125C1.91702 24.1125 0.979515 24.9625 0.723265 25.9437C0.667015 26.175 0.573265 26.3312 0.385765 26.5125C0.0795154 26.8125 -0.0329846 27.125 0.0107654 27.5312C0.0795154 28.1187 0.435765 28.6125 0.979515 28.8812L1.33577 29.0562L5.96076 29.075C8.50451 29.0875 10.6795 29.075 10.792 29.0562C11.1858 28.9812 11.367 28.6 11.1545 28.3C11.067 28.1875 10.9233 28.1812 6.29202 28.15C1.69827 28.1187 1.51702 28.1125 1.32327 27.9937C1.10452 27.8687 0.910765 27.5312 0.942015 27.35C0.960765 27.25 1.86076 27.2437 15.992 27.2437C30.1233 27.2437 31.0233 27.25 31.042 27.35C31.0795 27.5312 30.8608 27.9 30.6545 28.0125C30.4733 28.1125 29.8045 28.1187 21.4483 28.1375L12.4358 28.15L12.3108 28.3125C12.142 28.5312 12.1483 28.6687 12.3295 28.8812L12.4795 29.0562H21.567H30.6483L31.0045 28.8812C31.617 28.5812 31.9545 28.0562 31.9608 27.3937C31.9608 27.05 31.9358 26.9437 31.792 26.7312C31.5483 26.3625 31.3108 26.275 30.5545 26.275C30.2045 26.275 29.9295 26.2562 29.942 26.225C30.3608 25.4125 30.3358 25.5187 30.3295 24.3375C30.3295 23.7375 30.292 22.975 30.2483 22.65C29.5295 17.0187 26.3483 13.5937 20.7483 12.4312C20.0233 12.2812 19.917 12.2875 19.7295 12.45C19.5795 12.575 19.5795 12.975 19.7295 13.1C19.7858 13.1562 20.2045 13.275 20.6483 13.3687C24.2733 14.1312 26.9295 16.05 28.242 18.8562C28.717 19.8687 29.142 21.35 29.2795 22.4625L29.317 22.8062L27.8858 21.3812C26.8608 20.3687 26.417 19.9625 26.3108 19.9625C26.2358 19.9625 26.0858 20.05 25.9795 20.15C25.8295 20.3062 25.7983 20.375 25.8358 20.5125C25.8608 20.6187 26.492 21.3 27.5795 22.4C29.392 24.2312 29.4295 24.2812 29.4295 24.8812C29.4295 25.2375 29.142 25.7687 28.8358 25.975C28.6983 26.075 28.4295 26.1812 28.242 26.2125C28.0295 26.25 26.767 26.2687 25.0233 26.2625L22.1545 26.2437L22.0795 25.8687C21.892 24.95 21.5233 24.35 20.8795 23.9187C20.417 23.6062 20.042 23.4812 19.292 23.3875C18.8108 23.325 18.7295 23.3312 18.5858 23.425C18.317 23.6 18.2795 23.7625 18.3545 24.3562C18.4358 24.9812 18.6045 25.4875 18.867 25.8937C18.967 26.0562 19.0545 26.2125 19.0545 26.2312C19.0545 26.2562 18.642 26.275 18.1295 26.275H17.2108L16.3858 25.4437C15.9358 24.9937 15.5233 24.5312 15.467 24.4187C15.4108 24.3062 15.367 24.0937 15.367 23.9375C15.367 23.6937 15.4045 23.6125 15.592 23.4C15.867 23.0937 16.4233 22.825 17.1233 22.6437C17.792 22.475 19.592 22.4125 20.6295 22.5187C21.6295 22.625 22.767 22.8625 23.6795 23.1625L24.4608 23.4187L25.0858 24.0312C25.4295 24.3687 25.7795 24.6687 25.867 24.7C26.0608 24.775 26.392 24.6562 26.4545 24.4937C26.567 24.1937 26.4983 24.0875 25.5983 23.1625C24.6108 22.15 24.417 21.8937 24.0545 21.1375C23.7545 20.5125 23.567 19.8062 23.5108 19.1062C23.4545 18.3687 23.5358 18.3625 24.2358 19.05C24.692 19.4937 24.8233 19.5875 24.9858 19.5875C25.2358 19.5875 25.4295 19.3937 25.4295 19.1437C25.4295 18.9812 25.3358 18.85 24.8608 18.3625C24.2295 17.725 24.0108 17.5875 23.6108 17.5875C22.992 17.5875 22.5545 18.0937 22.5545 18.8125C22.5545 19.6687 22.892 21 23.2983 21.75C23.3983 21.9375 23.467 22.0875 23.4483 22.0875C23.4358 22.0875 23.2045 22.0312 22.9358 21.9625C21.6733 21.6437 20.917 21.5562 19.242 21.5625C18.0233 21.5625 17.5483 21.5812 17.2233 21.6562C16.8358 21.7437 16.8045 21.7437 16.842 21.6562C17.1295 20.9687 17.2045 20.6 17.2045 19.775C17.2108 19.0562 17.1858 18.8625 17.067 18.4625C16.5483 16.8062 15.317 15.6312 13.5858 15.1375C13.1608 15.0187 12.9358 14.9937 12.0858 14.9937C10.942 14.9937 10.4545 15.0937 9.47326 15.525C9.17326 15.6562 8.94201 15.7375 8.96076 15.7062C8.98576 15.675 9.23576 15.4687 9.52326 15.2437C10.9233 14.15 12.5358 13.4187 14.2233 13.1187C14.5295 13.0625 15.2733 12.9937 15.892 12.9625C16.5045 12.925 17.1733 12.8562 17.3858 12.8C18.717 12.4562 19.4358 11.525 19.5858 9.9562C19.6295 9.51245 19.6233 9.47495 19.4733 9.29995C19.3233 9.12495 19.292 9.1187 18.8545 9.13745C18.3108 9.1562 17.767 9.2812 17.3233 9.49995C16.9983 9.6562 16.442 10.1375 16.317 10.3687C16.2483 10.4937 16.2483 10.4875 16.142 10.3375C15.9295 10.0312 15.5045 9.66245 15.1733 9.5062C14.5983 9.22495 13.5108 9.0312 13.1983 9.14995ZM14.717 10.3437C15.2483 10.5937 15.592 11.0812 15.717 11.7375L15.7608 11.9812L15.492 11.9375C15.1108 11.875 14.5795 11.6 14.3545 11.3437C14.1233 11.0812 13.9483 10.7062 13.892 10.3437L13.8483 10.0687L14.092 10.1125C14.2233 10.1375 14.5108 10.2375 14.717 10.3437ZM18.592 10.35C18.4608 11.1812 17.8295 11.8062 16.992 11.9375L16.7233 11.9812L16.767 11.7375C16.792 11.6062 16.8983 11.3125 17.0108 11.0875C17.2358 10.6375 17.5858 10.3437 18.1108 10.1875C18.6045 10.0312 18.642 10.0437 18.592 10.35ZM13.4608 16.0875C14.3233 16.3625 15.017 16.8187 15.4733 17.4125C16.667 18.9562 16.5608 20.925 15.2108 22.3875C14.967 22.6625 14.7108 22.9625 14.6545 23.0625L14.5483 23.2437L13.4733 23.25C12.4858 23.25 12.3545 23.2687 11.842 23.425C10.8045 23.7375 10.1045 24.1562 9.35451 24.9L8.87326 25.3812L8.68576 24.9875C8.23576 24.0312 7.38577 23.5 6.06702 23.3687C5.69827 23.3312 5.58577 23.3437 5.45451 23.425C5.22952 23.575 5.19202 23.7375 5.24827 24.3187C5.30452 24.9562 5.49827 25.5437 5.77326 25.9375C5.89201 26.1062 5.96702 26.25 5.93577 26.2625C5.77952 26.3125 5.12327 26.1312 4.89827 25.975C4.56077 25.7437 4.30452 25.2375 4.30452 24.8062C4.30452 24.375 4.46077 23.5 4.65452 22.8062C4.91077 21.9187 5.25452 21.025 5.34827 21.025C5.55452 21.025 5.95451 21.3187 6.76076 22.05C7.62951 22.8375 8.41701 23.4125 8.94826 23.65C9.20451 23.7625 9.26701 23.7687 9.41076 23.7C9.50451 23.6562 9.62326 23.5437 9.67326 23.4562C9.81701 23.2 9.66701 22.975 9.15451 22.7C8.58576 22.3875 8.21076 22.1 7.31076 21.2812C5.97951 20.075 5.86076 20.025 4.17952 20.025H3.01077L2.66702 20.2937C2.47327 20.4437 2.16702 20.6312 1.99202 20.7062C1.69202 20.8375 1.64202 20.8375 1.43577 20.7625C1.07952 20.6312 0.960765 20.325 0.960765 19.525C0.960765 18.975 0.979515 18.8312 1.09202 18.65C1.38577 18.15 1.72952 18.1625 2.54827 18.7187L3.11077 19.1L4.25452 19.075C5.60452 19.05 5.75451 19.0062 6.67951 18.375C9.38576 16.525 9.97326 16.2062 11.1233 15.9625C11.617 15.8625 12.967 15.9312 13.4608 16.0875ZM14.1983 24.1875C14.3233 24.2125 14.4295 24.25 14.4295 24.2812C14.4295 24.3125 14.492 24.4937 14.5608 24.6937C14.667 24.9687 14.817 25.175 15.2483 25.6187C15.5545 25.9375 15.8045 26.2125 15.8045 26.2312C15.8045 26.2562 14.367 26.275 12.617 26.275H9.42326L9.49826 26.1375C9.62951 25.8875 10.517 25.0625 10.8858 24.8437C11.3608 24.5625 11.9233 24.3437 12.4233 24.2437C12.867 24.1562 13.8108 24.125 14.1983 24.1875ZM6.96076 24.5187C7.51076 24.7625 7.92951 25.325 8.02951 25.9625L8.07326 26.2312L7.82951 26.1875C7.45451 26.1187 6.98576 25.8812 6.74826 25.6437C6.51076 25.4062 6.27326 24.9375 6.20451 24.5625L6.16077 24.3187L6.43576 24.3625C6.58576 24.3875 6.82326 24.4562 6.96076 24.5187ZM19.9983 24.4875C20.4358 24.6687 20.7233 24.9437 20.9233 25.35C21.0233 25.5687 21.1295 25.85 21.1545 25.9875L21.1983 26.2312L20.9545 26.1875C20.4983 26.1062 19.9358 25.7875 19.7233 25.4812C19.5108 25.1812 19.317 24.7125 19.3108 24.4687C19.3045 24.3312 19.3233 24.325 19.542 24.3625C19.6795 24.3812 19.8795 24.4375 19.9983 24.4875ZM3.38577 25.0812C3.41077 25.3937 3.51077 25.6812 3.79202 26.225C3.80452 26.2562 3.32327 26.275 2.71702 26.275C1.99827 26.275 1.61702 26.25 1.61702 26.2125C1.61702 26.0875 1.86702 25.6562 2.06702 25.425C2.35452 25.1 2.97327 24.7375 3.27952 24.7187C3.32327 24.7125 3.36077 24.8687 3.38577 25.0812Z" fill="white"/>
</svg>
