<svg width="16" height="24" viewBox="0 0 16 24" fill="none" xmlns="http://www.w3.org/2000/svg">
<path d="M8 0.0134277C3.857 0.0134277 0.5 3.35693 0.5 7.49843C0.5 14.6594 8 23.9984 8 23.9984C8 23.9984 15.5 14.6579 15.5 7.49843C15.5 3.35843 12.143 0.0134277 8 0.0134277ZM8 11.6399C6.92587 11.6399 5.89574 11.2132 5.13622 10.4537C4.3767 9.69419 3.95 8.66406 3.95 7.58993C3.95 6.5158 4.3767 5.48567 5.13622 4.72615C5.89574 3.96662 6.92587 3.53993 8 3.53993C9.07413 3.53993 10.1043 3.96662 10.8638 4.72615C11.6233 5.48567 12.05 6.5158 12.05 7.58993C12.05 8.66406 11.6233 9.69419 10.8638 10.4537C10.1043 11.2132 9.07413 11.6399 8 11.6399Z" fill="url(#paint0_linear_1842_718)"/>
<defs>
<linearGradient id="paint0_linear_1842_718" x1="0.5" y1="12.0059" x2="15.5" y2="12.0059" gradientUnits="userSpaceOnUse">
<stop stop-color="#76B852"/>
<stop offset="1" stop-color="#8DC26F"/>
</linearGradient>
</defs>
</svg>
