<svg width="6" height="6" viewBox="0 0 6 6" fill="none" xmlns="http://www.w3.org/2000/svg">
<path d="M2.22756 0.687537C0.715063 1.22504 0.0150642 2.89379 0.696313 4.34379C1.46506 6.00004 3.65881 6.35629 4.97131 5.05004C6.13381 3.88754 5.90256 1.84379 4.50256 0.962538C3.86506 0.562537 2.90881 0.443787 2.22756 0.687537ZM3.59006 1.68754C3.90256 1.77504 4.41506 2.25004 4.54631 2.57504C4.60256 2.72504 4.65256 3.00004 4.65256 3.18754C4.65256 3.80629 4.36506 4.29379 3.82131 4.59379C2.99006 5.04379 1.97756 4.67504 1.60256 3.78129C1.47131 3.46254 1.47756 2.91254 1.60881 2.57504C1.73381 2.26879 2.24631 1.77504 2.54006 1.69379C2.80881 1.61254 3.31506 1.61254 3.59006 1.68754Z" fill="white"/>
</svg>
