<svg width="32" height="25" viewBox="0 0 32 25" fill="none" xmlns="http://www.w3.org/2000/svg">
<path d="M0.635938 0.681458C0.429688 0.887707 0.310938 1.71271 0.360938 2.54396C0.404688 3.20021 0.504688 3.63146 0.754688 4.21271L0.917188 4.60021L0.754688 5.08771C0.454688 6.00646 0.223438 7.27521 0.0796875 8.82521C-0.0265625 10.0002 -0.0265625 15.144 0.0796875 16.2627C0.242188 17.8877 0.467188 19.1252 0.785938 20.094L0.917188 20.4877L0.760938 20.844C0.398438 21.6502 0.260938 22.7315 0.398438 23.6627C0.492188 24.3127 0.504688 24.344 0.723438 24.4565C0.873438 24.5315 0.992188 24.5377 1.39219 24.4877C2.37969 24.3565 3.41719 23.9565 4.12344 23.4252C4.29219 23.3002 4.46719 23.169 4.51094 23.1502C4.55469 23.1252 5.04219 23.2127 5.60469 23.3502C8.47344 24.0565 12.4672 24.5002 15.9672 24.5002C19.4672 24.5002 23.4609 24.0565 26.3297 23.3502C26.8922 23.2127 27.3797 23.1252 27.4234 23.1502C27.4672 23.169 27.6422 23.3002 27.8109 23.4252C28.5172 23.9565 29.5547 24.3565 30.5422 24.4877C30.9422 24.5377 31.0609 24.5315 31.2109 24.4565C31.4297 24.344 31.4422 24.3127 31.5359 23.6627C31.6734 22.7315 31.5359 21.6502 31.1734 20.844L31.0172 20.4877L31.1484 20.094C31.4672 19.1252 31.6922 17.8877 31.8547 16.2627C31.9609 15.144 31.9609 10.0002 31.8547 8.82521C31.7109 7.27521 31.4797 6.00646 31.1797 5.08771L31.0172 4.60021L31.1797 4.21271C31.4297 3.63146 31.5297 3.20021 31.5734 2.54396C31.6234 1.71271 31.5047 0.887707 31.2984 0.681458C31.1547 0.537706 31.1172 0.531456 30.6984 0.568956C29.7109 0.656456 28.5172 1.11896 27.7422 1.69396L27.3547 1.98146L26.7734 1.82521C24.2422 1.13771 19.2547 0.543957 15.9672 0.543957C12.6797 0.543957 7.69219 1.13771 5.16094 1.82521L4.57969 1.98146L4.19219 1.69396C3.41719 1.11896 2.22344 0.656456 1.23594 0.568956C0.817188 0.531456 0.779688 0.537706 0.635938 0.681458ZM19.3734 1.63771C22.3984 1.88771 25.0672 2.30646 26.7359 2.78771C27.0984 2.89396 27.4484 2.98146 27.5109 2.98146C27.5797 2.98146 27.8422 2.81271 28.0984 2.61271C28.7609 2.08146 29.5484 1.71896 30.3547 1.57521C30.5797 1.53146 30.5859 1.53771 30.6297 1.76271C30.6859 2.08146 30.6172 2.94396 30.4922 3.35646C30.4359 3.54396 30.3047 3.87521 30.1984 4.08771L30.0047 4.48146L30.1984 5.08771C30.5547 6.18146 30.7547 7.24396 30.9172 8.82521C31.0234 9.93146 31.0297 15.0877 30.9172 16.2002C30.7547 17.8377 30.5234 19.0315 30.1609 20.069C29.9922 20.5377 29.9984 20.5877 30.1859 20.944C30.4984 21.5315 30.6109 22.019 30.6172 22.7752C30.6234 23.1565 30.6047 23.4877 30.5797 23.5127C30.5109 23.5815 29.5297 23.3065 29.0609 23.0877C28.8234 22.969 28.4109 22.7065 28.1484 22.494C27.8234 22.2315 27.6109 22.1065 27.4984 22.1065C27.4047 22.1065 27.0422 22.1877 26.6922 22.2877C24.0984 23.0377 19.6609 23.5627 15.9672 23.5627C12.2734 23.5627 7.83594 23.0377 5.24219 22.2877C4.89219 22.1877 4.52969 22.1065 4.43594 22.1065C4.32344 22.1065 4.11094 22.2315 3.78594 22.494C3.52344 22.7065 3.11719 22.969 2.87344 23.0877C2.40469 23.3065 1.42344 23.5815 1.35469 23.5127C1.32969 23.4877 1.31094 23.1565 1.31719 22.7752C1.32344 22.019 1.43594 21.5315 1.74844 20.944C1.93594 20.5877 1.94219 20.5377 1.77344 20.069C1.41094 19.0315 1.17969 17.8377 1.01719 16.2002C0.904688 15.0877 0.910938 9.93146 1.01719 8.82521C1.17969 7.24396 1.37969 6.18146 1.73594 5.08771L1.92969 4.48146L1.73594 4.08771C1.62969 3.87521 1.49844 3.54396 1.44219 3.35646C1.31719 2.94396 1.24844 2.08146 1.30469 1.76271C1.34844 1.53771 1.35469 1.53146 1.57969 1.57521C2.38594 1.71896 3.17344 2.08146 3.83594 2.61271C4.09219 2.81271 4.35469 2.98146 4.42344 2.98146C4.48594 2.98146 4.83594 2.89396 5.19844 2.78771C7.17969 2.21271 10.7234 1.71896 14.2484 1.51896C15.1359 1.46896 18.2172 1.54396 19.3734 1.63771Z" fill="white"/>
<path d="M27.2919 4.10646C27.1107 4.18146 26.8544 4.58771 26.4044 5.51271C26.0482 6.23771 25.5294 7.68146 25.5294 7.93146C25.5294 8.26271 25.8919 8.49396 26.1919 8.34396C26.3482 8.27521 26.4107 8.15021 26.6544 7.41896C26.8107 6.95646 27.0482 6.34396 27.1857 6.05646C27.4669 5.44396 27.4419 5.42521 27.8107 6.48146C28.5419 8.60021 28.8232 10.4502 28.7607 12.7752C28.7232 14.1377 28.6419 14.869 28.3982 16.1065C28.1544 17.3502 27.5607 19.3565 27.4669 19.2565C27.3607 19.144 26.7794 17.3315 26.5357 16.3627C26.1357 14.7815 26.0169 13.8127 26.0044 12.2002C26.0044 11.444 26.0107 10.5752 26.0294 10.2752C26.0607 9.75021 26.0544 9.71271 25.9107 9.60021C25.7169 9.43771 25.4544 9.45021 25.2919 9.62521C25.0982 9.83146 25.0044 10.9752 25.0482 12.5127C25.1294 15.0377 25.6669 17.394 26.7919 20.1002C27.0732 20.7627 27.1419 20.8815 27.3044 20.9502C27.5919 21.0752 27.8044 20.969 27.9732 20.619C28.6607 19.1502 29.2669 16.9627 29.5669 14.8565C29.7044 13.8565 29.7482 11.8377 29.6607 10.7002C29.4919 8.59396 28.9294 6.47521 28.0669 4.65021C27.7982 4.08146 27.6357 3.96896 27.2919 4.10646Z" fill="white"/>
<path d="M17.692 6.17519C17.5795 6.26269 17.5295 6.36269 17.5295 6.50644C17.5295 6.84394 17.6545 6.94394 18.117 6.98144L18.5233 7.01269L18.0295 7.66894C17.4858 8.3877 17.417 8.61895 17.6545 8.85645C17.767 8.96895 17.8608 8.98145 18.692 8.98145C19.192 8.98145 19.6545 8.95645 19.717 8.91895C19.7795 8.8877 19.8545 8.7752 19.892 8.6752C20.017 8.31895 19.7295 8.04395 19.2358 8.04395C19.0858 8.04395 18.967 8.0252 18.967 8.00644C18.967 7.98769 19.1358 7.75019 19.342 7.48144C19.8983 6.75019 19.9795 6.59394 19.9108 6.40019C19.792 6.08769 19.6358 6.04394 18.7108 6.04394C17.942 6.04394 17.842 6.05644 17.692 6.17519Z" fill="white"/>
<path d="M13.7796 8.62519C13.4608 8.78769 13.4233 9.26269 13.7171 9.41894C13.7796 9.45644 14.2171 9.48144 14.6796 9.48144C15.1483 9.48144 15.5296 9.49394 15.5296 9.51269C15.5296 9.52519 15.0796 10.1689 14.5296 10.9377C13.6858 12.1252 13.5296 12.3752 13.5296 12.5627C13.5296 12.9627 13.6108 12.9814 15.2296 12.9814C16.5733 12.9814 16.6608 12.9752 16.7796 12.8564C16.9483 12.6877 16.9421 12.3502 16.7733 12.1939C16.6608 12.0939 16.5108 12.0689 15.7796 12.0439L14.9171 12.0127L15.9108 10.6189C17.0046 9.08144 17.0671 8.93144 16.7421 8.67519C16.5858 8.55019 16.4983 8.54394 15.2546 8.54394C14.3233 8.54394 13.8921 8.56894 13.7796 8.62519Z" fill="white"/>
<path d="M8.81094 12.6002C8.50469 12.7252 8.41094 13.119 8.62344 13.3565C8.72969 13.469 8.82969 13.4815 10.0734 13.494L11.4172 13.5127L9.99844 15.1315C9.21719 16.0252 8.55469 16.819 8.52344 16.9002C8.46094 17.069 8.52969 17.2877 8.68594 17.419C8.85469 17.5627 12.2922 17.594 12.6172 17.4565C12.8547 17.3565 12.9484 17.1627 12.8797 16.8877C12.8109 16.6127 12.6484 16.5752 11.2984 16.544L10.0422 16.5127L10.9172 15.5127C12.9047 13.244 12.9047 13.244 12.9047 13.019C12.9047 12.8877 12.8547 12.769 12.7734 12.694C12.6484 12.5815 12.5109 12.5752 10.7859 12.5627C9.76719 12.5565 8.87969 12.5752 8.81094 12.6002Z" fill="white"/>
</svg>
