<svg width="50" height="50" viewBox="0 0 50 50" fill="none" xmlns="http://www.w3.org/2000/svg">
<circle cx="25" cy="25" r="25" fill="#70873A"/>
<g clip-path="url(#clip0_1842_648)">
<path d="M36.62 26.9718C37.3658 20.6937 36.2617 16.7302 34.27 14.9375L34.271 14.9364C31.0565 11.875 20.2002 11.4218 16.3544 15.0739C14.6273 16.8604 14.019 19.4823 13.9523 22.7281C13.8856 25.975 13.8065 32.0573 19.4742 33.7073H19.4794L19.4742 36.227C19.4742 36.227 19.4356 37.2479 20.0877 37.4531C20.8335 37.6948 21.171 37.2208 23.4908 34.45C27.37 34.7864 30.3492 34.0156 30.6877 33.9031C31.471 33.6406 35.9033 33.0541 36.62 26.9718ZM23.8731 32.677C23.8731 32.677 21.4179 35.7385 20.6544 36.5333C20.4044 36.7916 20.1304 36.7677 20.1346 36.2552C20.1346 35.9187 20.1533 32.0718 20.1533 32.0718C15.3481 30.6948 15.6315 25.5156 15.6835 22.8062C15.7356 20.0958 16.2315 17.876 17.694 16.3812C21.0679 13.2177 30.5856 13.925 33.0106 16.2041C35.9752 18.8323 34.92 26.2573 34.9262 26.5104C34.3169 31.5875 30.7252 31.9093 30.0648 32.1291C29.7825 32.2229 27.1627 32.8968 23.8731 32.677Z" fill="white"/>
<path d="M25.2314 16.9761C24.8304 16.9761 24.8304 17.6011 25.2314 17.6063C28.3429 17.6302 30.9054 19.799 30.9335 23.7771C30.9335 24.1969 31.5481 24.1917 31.5429 23.7719H31.5419C31.5085 19.4854 28.7106 17 25.2314 16.9761Z" fill="white"/>
<path d="M29.3238 23.1176C29.3144 23.5322 29.928 23.552 29.9332 23.1322C29.9842 20.7687 28.5269 18.8218 25.7884 18.6166C25.3874 18.5874 25.3457 19.2176 25.7457 19.2468C28.1207 19.427 29.3717 21.0478 29.3238 23.1176Z" fill="white"/>
<path d="M28.6676 25.8062C28.1531 25.5083 27.6291 25.6937 27.4124 25.9864L26.9593 26.5729C26.7291 26.8708 26.2989 26.8312 26.2989 26.8312C23.1593 26.001 22.3197 22.7156 22.3197 22.7156C22.3197 22.7156 22.2812 22.2708 22.5687 22.0322L23.1354 21.5635C23.4187 21.3385 23.5979 20.7968 23.3093 20.2645C22.5385 18.8718 22.0208 18.3916 21.7572 18.0229C21.4801 17.676 21.0635 17.5979 20.6301 17.8322H20.6208C19.7197 18.3593 18.7333 19.3458 19.0489 20.3614C19.5874 21.4322 20.577 24.8458 23.7312 27.4249C25.2135 28.6447 27.5593 29.8947 28.5551 30.1833L28.5645 30.1979C29.5458 30.5249 30.4999 29.4999 31.0093 28.5718V28.5645C31.2353 28.1156 31.1603 27.6906 30.8301 27.4124C30.2447 26.8416 29.3614 26.2114 28.6676 25.8062Z" fill="white"/>
<path d="M26.2179 20.9417C27.2189 21 27.7044 21.5229 27.7564 22.5969C27.7752 23.0167 28.3846 22.9875 28.3658 22.5677C28.2992 21.1656 27.5679 20.3844 26.2512 20.3115C25.8502 20.2875 25.8127 20.9177 26.2179 20.9417Z" fill="white"/>
</g>
<defs>
<clipPath id="clip0_1842_648">
<rect width="25" height="25" fill="white" transform="translate(12.5 12.5)"/>
</clipPath>
</defs>
</svg>
