<svg width="20" height="29" viewBox="0 0 20 29" fill="none" xmlns="http://www.w3.org/2000/svg">
<path d="M9.76864 1.07495C9.67489 1.1187 8.28739 3.4687 5.59989 8.11871C3.38739 11.9562 1.50614 15.2375 1.41864 15.4125C1.15614 15.9312 0.824887 16.9625 0.674887 17.7062C0.493637 18.625 0.474887 20.2937 0.643637 21.1562C1.03114 23.1187 1.83739 24.6937 3.18114 26.0875C6.23739 29.2562 11.0874 29.9125 14.8436 27.6562C17.2311 26.225 18.8061 23.95 19.3561 21.1562C19.5249 20.2937 19.5061 18.625 19.3249 17.7062C19.1749 16.9625 18.8436 15.9312 18.5811 15.4125C18.4936 15.2375 16.6124 11.9562 14.3999 8.11871C10.0249 0.537455 10.2311 0.849955 9.76864 1.07495ZM13.7624 9.01245C15.8061 12.5625 17.5561 15.6062 17.6436 15.7812C17.8811 16.2625 18.1624 17.1 18.3249 17.8187C18.5061 18.6562 18.5249 20.225 18.3561 21.075C17.8999 23.375 16.5311 25.4 14.5936 26.6375C13.7061 27.2125 12.6249 27.6437 11.5749 27.8562C10.7999 28.0125 9.16864 28.0062 8.40614 27.85C3.24364 26.7812 0.268637 21.575 2.00614 16.6437C2.11239 16.3437 2.27489 15.95 2.35614 15.7812C2.61239 15.275 9.96239 2.56245 9.99989 2.56245C10.0186 2.56245 11.7124 5.4687 13.7624 9.01245Z" fill="white"/>
<path d="M3.65625 19.1562C3.53125 19.275 3.5 19.3687 3.5 19.6187C3.5 20.7437 3.96875 22.2 4.64375 23.1812C4.9375 23.6125 5.71875 24.4 6.18125 24.7437C7.2 25.4937 8.68125 26 9.8625 26C10.2625 26 10.5 25.8125 10.5 25.5C10.5 25.15 10.2938 25.025 9.65625 24.9812C7.5 24.825 5.68125 23.4937 4.88125 21.4937C4.675 20.9875 4.5 20.1125 4.5 19.6125C4.5 19.2375 4.30625 19 4 19C3.88125 19 3.75 19.0562 3.65625 19.1562Z" fill="white"/>
</svg>
